<svg id="visual" viewBox="0 0 900 600" width="900" height="600" xmlns="http://www.w3.org/2000/svg" xmlns:xlink="http://www.w3.org/1999/xlink" version="1.1"><g stroke-width="1" stroke-linejoin="bevel"><path d="M500 310L461 238L364 337Z" fill="#00101c" stroke="#00101c"></path><path d="M364 337L374 384L500 310Z" fill="#00101c" stroke="#00101c"></path><path d="M461 238L404 196L364 337Z" fill="#548f44" stroke="#548f44"></path><path d="M374 384L472 417L500 310Z" fill="#002f3b" stroke="#002f3b"></path><path d="M404 196L286 282L364 337Z" fill="#799c36" stroke="#799c36"></path><path d="M364 337L265 380L374 384Z" fill="#799c36" stroke="#799c36"></path><path d="M404 196L287 204L286 282Z" fill="#a2a629" stroke="#a2a629"></path><path d="M636 218L478 138L461 238Z" fill="#33804e" stroke="#33804e"></path><path d="M461 238L478 138L404 196Z" fill="#799c36" stroke="#799c36"></path><path d="M404 196L290 122L287 204Z" fill="#004f4f" stroke="#004f4f"></path><path d="M472 417L592 364L500 310Z" fill="#799c36" stroke="#799c36"></path><path d="M500 310L636 218L461 238Z" fill="#004f4f" stroke="#004f4f"></path><path d="M209 273L265 380L286 282Z" fill="#33804e" stroke="#33804e"></path><path d="M286 282L265 380L364 337Z" fill="#00101c" stroke="#00101c"></path><path d="M374 529L494 504L472 417Z" fill="#004f4f" stroke="#004f4f"></path><path d="M592 364L621 336L500 310Z" fill="#004f4f" stroke="#004f4f"></path><path d="M478 138L416 101L404 196Z" fill="#003f47" stroke="#003f47"></path><path d="M374 529L472 417L374 384Z" fill="#548f44" stroke="#548f44"></path><path d="M472 417L610 486L592 364Z" fill="#a2a629" stroke="#a2a629"></path><path d="M592 364L670 385L621 336Z" fill="#a2a629" stroke="#a2a629"></path><path d="M287 204L209 273L286 282Z" fill="#002f3b" stroke="#002f3b"></path><path d="M621 336L636 218L500 310Z" fill="#003f47" stroke="#003f47"></path><path d="M478 138L492 0L416 101Z" fill="#799c36" stroke="#799c36"></path><path d="M416 101L290 122L404 196Z" fill="#548f44" stroke="#548f44"></path><path d="M287 204L183 222L209 273Z" fill="#006054" stroke="#006054"></path><path d="M194 416L268 464L265 380Z" fill="#33804e" stroke="#33804e"></path><path d="M265 380L268 464L374 384Z" fill="#33804e" stroke="#33804e"></path><path d="M268 464L374 529L374 384Z" fill="#011f2c" stroke="#011f2c"></path><path d="M610 486L670 385L592 364Z" fill="#a2a629" stroke="#a2a629"></path><path d="M621 336L677 228L636 218Z" fill="#548f44" stroke="#548f44"></path><path d="M167 118L183 222L287 204Z" fill="#157054" stroke="#157054"></path><path d="M209 273L194 416L265 380Z" fill="#002f3b" stroke="#002f3b"></path><path d="M494 504L610 486L472 417Z" fill="#011f2c" stroke="#011f2c"></path><path d="M510 600L610 486L494 504Z" fill="#33804e" stroke="#33804e"></path><path d="M112 439L194 416L71 261Z" fill="#006054" stroke="#006054"></path><path d="M720 262L677 228L621 336Z" fill="#a2a629" stroke="#a2a629"></path><path d="M636 218L634 115L478 138Z" fill="#548f44" stroke="#548f44"></path><path d="M677 228L634 115L636 218Z" fill="#a2a629" stroke="#a2a629"></path><path d="M268 464L267 600L374 529Z" fill="#00101c" stroke="#00101c"></path><path d="M194 416L211 482L268 464Z" fill="#a2a629" stroke="#a2a629"></path><path d="M670 385L720 262L621 336Z" fill="#799c36" stroke="#799c36"></path><path d="M677 228L735 121L634 115Z" fill="#006054" stroke="#006054"></path><path d="M267 600L395 600L374 529Z" fill="#003f47" stroke="#003f47"></path><path d="M374 529L395 600L494 504Z" fill="#003f47" stroke="#003f47"></path><path d="M395 600L510 600L494 504Z" fill="#004f4f" stroke="#004f4f"></path><path d="M590 0L492 0L478 138Z" fill="#00101c" stroke="#00101c"></path><path d="M416 101L360 0L290 122Z" fill="#002f3b" stroke="#002f3b"></path><path d="M492 0L360 0L416 101Z" fill="#011f2c" stroke="#011f2c"></path><path d="M290 122L167 118L287 204Z" fill="#011f2c" stroke="#011f2c"></path><path d="M277 0L167 118L290 122Z" fill="#157054" stroke="#157054"></path><path d="M71 261L194 416L209 273Z" fill="#a2a629" stroke="#a2a629"></path><path d="M360 0L277 0L290 122Z" fill="#799c36" stroke="#799c36"></path><path d="M211 482L267 600L268 464Z" fill="#002f3b" stroke="#002f3b"></path><path d="M666 0L590 0L634 115Z" fill="#548f44" stroke="#548f44"></path><path d="M634 115L590 0L478 138Z" fill="#003f47" stroke="#003f47"></path><path d="M71 261L209 273L183 222Z" fill="#548f44" stroke="#548f44"></path><path d="M194 416L112 439L211 482Z" fill="#33804e" stroke="#33804e"></path><path d="M211 482L213 600L267 600Z" fill="#002f3b" stroke="#002f3b"></path><path d="M129 109L104 178L167 118Z" fill="#548f44" stroke="#548f44"></path><path d="M167 118L104 178L183 222Z" fill="#00101c" stroke="#00101c"></path><path d="M610 486L724 526L670 385Z" fill="#00101c" stroke="#00101c"></path><path d="M670 385L783 289L720 262Z" fill="#002f3b" stroke="#002f3b"></path><path d="M510 600L618 600L610 486Z" fill="#002f3b" stroke="#002f3b"></path><path d="M803 390L783 289L670 385Z" fill="#33804e" stroke="#33804e"></path><path d="M720 262L735 121L677 228Z" fill="#548f44" stroke="#548f44"></path><path d="M174 0L129 109L167 118Z" fill="#004f4f" stroke="#004f4f"></path><path d="M814 189L735 121L720 262Z" fill="#004f4f" stroke="#004f4f"></path><path d="M0 314L71 261L0 228Z" fill="#00101c" stroke="#00101c"></path><path d="M104 178L71 261L183 222Z" fill="#a2a629" stroke="#a2a629"></path><path d="M103 600L213 600L211 482Z" fill="#548f44" stroke="#548f44"></path><path d="M618 600L724 526L610 486Z" fill="#157054" stroke="#157054"></path><path d="M735 121L666 0L634 115Z" fill="#004f4f" stroke="#004f4f"></path><path d="M763 517L803 390L670 385Z" fill="#157054" stroke="#157054"></path><path d="M277 0L174 0L167 118Z" fill="#011f2c" stroke="#011f2c"></path><path d="M763 600L763 517L724 526Z" fill="#002f3b" stroke="#002f3b"></path><path d="M724 526L763 517L670 385Z" fill="#00101c" stroke="#00101c"></path><path d="M0 437L62 462L112 439Z" fill="#004f4f" stroke="#004f4f"></path><path d="M112 439L103 600L211 482Z" fill="#003f47" stroke="#003f47"></path><path d="M783 289L814 189L720 262Z" fill="#157054" stroke="#157054"></path><path d="M735 121L812 0L666 0Z" fill="#548f44" stroke="#548f44"></path><path d="M900 217L814 189L783 289Z" fill="#011f2c" stroke="#011f2c"></path><path d="M618 600L722 600L724 526Z" fill="#00101c" stroke="#00101c"></path><path d="M71 261L0 314L112 439Z" fill="#33804e" stroke="#33804e"></path><path d="M0 228L71 261L104 178Z" fill="#004f4f" stroke="#004f4f"></path><path d="M0 228L104 178L0 132Z" fill="#003f47" stroke="#003f47"></path><path d="M174 0L124 0L129 109Z" fill="#548f44" stroke="#548f44"></path><path d="M0 132L104 178L129 109Z" fill="#a2a629" stroke="#a2a629"></path><path d="M62 462L103 600L112 439Z" fill="#33804e" stroke="#33804e"></path><path d="M0 600L103 600L62 462Z" fill="#003f47" stroke="#003f47"></path><path d="M722 600L763 600L724 526Z" fill="#002f3b" stroke="#002f3b"></path><path d="M900 364L900 338L803 390Z" fill="#33804e" stroke="#33804e"></path><path d="M900 82L822 89L814 189Z" fill="#004f4f" stroke="#004f4f"></path><path d="M814 189L822 89L735 121Z" fill="#157054" stroke="#157054"></path><path d="M0 314L0 437L112 439Z" fill="#00101c" stroke="#00101c"></path><path d="M0 0L0 132L129 109Z" fill="#157054" stroke="#157054"></path><path d="M0 437L0 479L62 462Z" fill="#a2a629" stroke="#a2a629"></path><path d="M900 364L803 390L900 480Z" fill="#157054" stroke="#157054"></path><path d="M803 390L900 338L783 289Z" fill="#799c36" stroke="#799c36"></path><path d="M900 480L803 390L763 517Z" fill="#157054" stroke="#157054"></path><path d="M900 338L900 217L783 289Z" fill="#799c36" stroke="#799c36"></path><path d="M900 0L812 0L822 89Z" fill="#00101c" stroke="#00101c"></path><path d="M822 89L812 0L735 121Z" fill="#548f44" stroke="#548f44"></path><path d="M900 600L900 480L763 517Z" fill="#004f4f" stroke="#004f4f"></path><path d="M0 479L0 600L62 462Z" fill="#00101c" stroke="#00101c"></path><path d="M900 217L900 82L814 189Z" fill="#003f47" stroke="#003f47"></path><path d="M124 0L0 0L129 109Z" fill="#011f2c" stroke="#011f2c"></path><path d="M763 600L900 600L763 517Z" fill="#33804e" stroke="#33804e"></path><path d="M900 82L900 0L822 89Z" fill="#157054" stroke="#157054"></path></g></svg>