<svg id="visual" viewBox="0 0 900 600" width="900" height="600" xmlns="http://www.w3.org/2000/svg" xmlns:xlink="http://www.w3.org/1999/xlink" version="1.1"><path d="M0 67L129 91L257 103L386 91L514 103L643 109L771 61L900 73L900 0L771 0L643 0L514 0L386 0L257 0L129 0L0 0Z" fill="#232741"></path><path d="M0 97L129 115L257 151L386 121L514 121L643 121L771 85L900 85L900 71L771 59L643 107L514 101L386 89L257 101L129 89L0 65Z" fill="#262f4c"></path><path d="M0 175L129 163L257 205L386 163L514 193L643 199L771 163L900 151L900 83L771 83L643 119L514 119L386 119L257 149L129 113L0 95Z" fill="#273858"></path><path d="M0 397L129 325L257 343L386 295L514 325L643 319L771 289L900 301L900 149L771 161L643 197L514 191L386 161L257 203L129 161L0 173Z" fill="#274064"></path><path d="M0 427L129 361L257 409L386 337L514 355L643 373L771 325L900 325L900 299L771 287L643 317L514 323L386 293L257 341L129 323L0 395Z" fill="#264a70"></path><path d="M0 469L129 409L257 499L386 403L514 385L643 457L771 421L900 397L900 323L771 323L643 371L514 353L386 335L257 407L129 359L0 425Z" fill="#23537b"></path><path d="M0 517L129 487L257 565L386 445L514 439L643 529L771 451L900 421L900 395L771 419L643 455L514 383L386 401L257 497L129 407L0 467Z" fill="#1d5d87"></path><path d="M0 601L129 601L257 601L386 601L514 601L643 601L771 601L900 601L900 419L771 449L643 527L514 437L386 443L257 563L129 485L0 515Z" fill="#116792"></path></svg>